<?xml version="1.0" encoding="UTF-8" standalone="no"?><!DOCTYPE svg PUBLIC "-//W3C//DTD SVG 1.1//EN" "http://www.w3.org/Graphics/SVG/1.1/DTD/svg11.dtd"><svg width="100%" height="100%" viewBox="0 0 3334 3334" version="1.1" xmlns="http://www.w3.org/2000/svg" xmlns:xlink="http://www.w3.org/1999/xlink" xml:space="preserve" xmlns:serif="http://www.serif.com/" style="fill-rule:evenodd;clip-rule:evenodd;stroke-linecap:round;stroke-linejoin:round;"><path d="M3253.96,1666.67c0,158.375 -48.125,338.833 -125.125,475.083c-76.958,136.292 -206.5,265.667 -336.833,342.5c-130.375,76.833 -301.458,119.958 -445.208,118.542c-143.75,-1.459 -303.959,-52.959 -417.292,-127.25c-113.375,-74.25 -213.917,-199.375 -262.833,-318.375c-48.917,-119 -59.917,-273.875 -30.792,-395.709c29.125,-121.875 109.375,-253.416 205.625,-335.416c96.25,-82 240.708,-144.625 371.917,-156.625c131.25,-12 292.625,18.375 415.5,84.583c122.916,66.208 248.333,184.542 321.916,312.667c73.542,128.125 121.125,301.791 119.417,456.041c-1.667,154.292 -49.875,333.25 -129.542,469.584c-79.666,136.333 -212.083,268.75 -348.416,348.416c-136.334,79.667 -315.292,127.875 -469.584,129.542c-154.25,1.708 -327.916,-45.875 -456.041,-119.417c-128.125,-73.583 -246.459,-199 -312.667,-321.916c-66.208,-122.875 -96.583,-284.25 -84.583,-415.5c12,-131.209 74.625,-275.667 156.625,-371.917c82,-96.25 213.541,-176.5 335.416,-205.625c121.834,-29.125 276.709,-18.125 395.709,30.792c119,48.916 244.125,149.458 318.375,262.833c74.291,113.333 125.791,273.542 127.25,417.292c1.416,143.75 -41.709,314.833 -118.542,445.208c-76.833,130.333 -206.208,259.875 -342.5,336.833c-136.25,77 -316.708,125.125 -475.083,125.125c-158.375,0 -338.834,-48.125 -475.084,-125.125c-136.291,-76.958 -265.666,-206.5 -342.5,-336.833c-76.833,-130.375 -119.958,-301.458 -118.541,-445.208c1.458,-143.75 52.958,-303.959 127.25,-417.292c74.25,-113.375 199.375,-213.917 318.375,-262.833c119,-48.917 273.875,-59.917 395.708,-30.792c121.875,29.125 253.417,109.375 335.417,205.625c82,96.25 144.625,240.708 156.625,371.917c12,131.25 -18.375,292.625 -84.584,415.5c-66.208,122.916 -184.541,248.333 -312.666,321.916c-128.125,73.542 -301.792,121.125 -456.042,119.417c-154.292,-1.667 -333.25,-49.875 -469.583,-129.542c-136.334,-79.666 -268.75,-212.083 -348.417,-348.416c-79.667,-136.334 -127.875,-315.292 -129.542,-469.584c-1.708,-154.25 45.875,-327.916 119.417,-456.041c73.583,-128.125 199,-246.459 321.917,-312.667c122.875,-66.208 284.25,-96.583 415.5,-84.583c131.208,12 275.666,74.625 371.916,156.625c96.25,82 176.5,213.541 205.625,335.416c29.125,121.834 18.125,276.709 -30.791,395.709c-48.917,119 -149.459,244.125 -262.834,318.375c-113.333,74.291 -273.541,125.791 -417.291,127.25c-143.75,1.416 -314.834,-41.709 -445.209,-118.542c-130.333,-76.833 -259.875,-206.208 -336.833,-342.5c-77,-136.25 -125.125,-316.708 -125.125,-475.083c0,-158.375 48.125,-338.834 125.125,-475.084c76.958,-136.291 206.5,-265.666 336.833,-342.5c130.375,-76.833 301.459,-119.958 445.209,-118.541c143.75,1.458 303.958,52.958 417.291,127.25c113.375,74.25 213.917,199.375 262.834,318.375c48.916,119 59.916,273.875 30.791,395.708c-29.125,121.875 -109.375,253.417 -205.625,335.417c-96.25,82 -240.708,144.625 -371.916,156.625c-131.25,12 -292.625,-18.375 -415.5,-84.584c-122.917,-66.208 -248.334,-184.541 -321.917,-312.666c-73.542,-128.125 -121.125,-301.792 -119.417,-456.042c1.667,-154.292 49.875,-333.25 129.542,-469.583c79.667,-136.334 212.083,-268.75 348.417,-348.417c136.333,-79.667 315.291,-127.875 469.583,-129.542c154.25,-1.708 327.917,45.875 456.042,119.417c128.125,73.583 246.458,199 312.666,321.917c66.209,122.875 96.584,284.25 84.584,415.5c-12,131.208 -74.625,275.666 -156.625,371.916c-82,96.25 -213.542,176.5 -335.417,205.625c-121.833,29.125 -276.708,18.125 -395.708,-30.791c-119,-48.917 -244.125,-149.459 -318.375,-262.834c-74.292,-113.333 -125.792,-273.541 -127.25,-417.291c-1.417,-143.75 41.708,-314.834 118.541,-445.209c76.834,-130.333 206.209,-259.875 342.5,-336.833c136.25,-77 316.709,-125.125 475.084,-125.125c158.375,0 338.833,48.125 475.083,125.125c136.292,76.958 265.667,206.5 342.5,336.833c76.833,130.375 119.958,301.459 118.542,445.209c-1.459,143.75 -52.959,303.958 -127.25,417.291c-74.25,113.375 -199.375,213.917 -318.375,262.834c-119,48.916 -273.875,59.916 -395.709,30.791c-121.875,-29.125 -253.416,-109.375 -335.416,-205.625c-82,-96.25 -144.625,-240.708 -156.625,-371.916c-12,-131.25 18.375,-292.625 84.583,-415.5c66.208,-122.917 184.542,-248.334 312.667,-321.917c128.125,-73.542 301.791,-121.125 456.041,-119.417c154.292,1.667 333.25,49.875 469.584,129.542c136.333,79.667 268.75,212.083 348.416,348.417c79.667,136.333 127.875,315.291 129.542,469.583c1.708,154.25 -45.875,327.917 -119.417,456.042c-73.583,128.125 -199,246.458 -321.916,312.666c-122.875,66.209 -284.25,96.584 -415.5,84.584c-131.209,-12 -275.667,-74.625 -371.917,-156.625c-96.25,-82 -176.5,-213.542 -205.625,-335.417c-29.125,-121.833 -18.125,-276.708 30.792,-395.708c48.916,-119 149.458,-244.125 262.833,-318.375c113.333,-74.292 273.542,-125.792 417.292,-127.25c143.75,-1.417 314.833,41.708 445.208,118.541c130.333,76.834 259.875,206.209 336.833,342.5c77,136.25 125.125,316.709 125.125,475.084Z" style="fill:none;fill-rule:nonzero;stroke:#2d7a57;stroke-width:132.67px;"/></svg>